<svg width="600" height="200" viewBox="0 0 600 200" fill="none" xmlns="http://www.w3.org/2000/svg">
<path d="M249.3 10.6992C252.8 10.6992 255.9 10.9992 258.7 12.0992C261.5 13.0992 263.6 14.4992 265.3 16.2992C267 17.9992 268.1 20.4992 269.1 22.8992C269.8 25.2992 270.1 28.0992 269.8 30.8992L254.8 33.6992C254.8 31.2992 254.1 29.4992 253.4 27.7992C252.4 26.3992 251.3 25.3992 249.6 25.3992C248.6 25.3992 247.9 25.6992 247.2 26.0992C246.5 26.3992 246.2 27.0992 245.8 27.4992C244.8 28.4992 244.4 29.1992 244.4 29.8992C244.4 30.5992 244.1 31.2992 244.1 31.5992V72.3992C244.1 73.3992 244.4 74.4992 244.8 75.4992C245.5 76.4992 246.5 76.8992 248.6 76.8992C250 76.8992 251.4 76.5992 252.4 75.8992C253.4 75.1992 253.8 74.1992 253.8 72.7992V60.5992H248.6V46.9992H269.5V71.7992C269.5 78.3992 267.8 83.2992 264.3 86.7992C260.8 90.2992 255.9 91.9992 249.3 91.9992C242 91.9992 236.7 90.2992 233.6 87.0992C230.5 83.5992 228.7 78.6992 228.7 72.0992V31.5992C228.7 25.2992 230.4 20.0992 233.9 16.1992C237.4 12.7992 242.6 10.6992 249.3 10.6992ZM276.2 91.2992V11.3992H312.9V26.3992H292V43.4992H310.5V58.4992H292V76.5992H312.9V91.5992H276.2V91.2992ZM347 49.0992V11.3992H362.4V91.2992H349.1L339.7 67.8992L334.1 52.8992H333.4V91.2992H317.7V11.3992H331.3L340.7 34.3992L345.9 49.0992H347ZM370.7 91.2992V11.3992H407.4V26.3992H386.5V43.4992H405V58.4992H386.5V76.5992H407.4V91.5992H370.8V91.2992H370.7ZM431.8 11.3992C434.9 11.3992 438.1 11.6992 440.9 12.3992C443.7 13.0992 446.1 14.4992 447.9 16.5992C450 18.2992 451.4 20.7992 452.4 23.8992C453.4 26.9992 454.1 30.4992 454.1 35.0992C454.1 40.6992 453.4 44.8992 452 48.3992C450.6 51.8992 448.2 54.6992 445.4 56.7992L456.9 91.3992H440.8L431.4 60.2992H428.3V91.3992H412.6V11.4992L431.8 11.3992ZM428.7 26.3992V45.1992H431.1C432.1 45.1992 433.2 45.1992 434.2 44.8992C435.2 44.5992 435.9 44.1992 437 43.4992C437.7 42.7992 438.4 41.7992 438.7 40.3992C439 38.9992 439.4 37.5992 439.4 35.4992C439.4 32.3992 438.7 30.2992 437.3 28.8992C435.9 27.4992 433.8 26.7992 431.4 26.7992H428.6C428.7 26.6992 428.7 26.3992 428.7 26.3992Z" fill="white"/>
<path d="M487.3 75.6004H475.4L473 91.3004H456.6L471.6 11.4004H490.8L506.2 91.3004H489.8L487.3 75.6004ZM479.3 48.4004L477.6 61.0004H484.9L483.5 48.4004L481.8 32.3004H481L479.3 48.4004ZM510 91.3004V11.4004H525.7V76.3004H546.6V91.3004H510ZM254.2 171.2H242.3L240.2 186.9H223.8L238.8 107H258L273 186.9H256.6L254.2 171.2ZM246.5 144L244.8 156.6H252.1L250.7 144L248.6 127.6H247.9L246.5 144ZM316.6 163.5C316.6 167.3 316.3 170.5 315.6 173.6C314.9 176.7 313.9 179.2 312.1 181.3C310.7 183.4 308.3 185.1 305.8 186.2C303 187.2 299.9 187.9 295.7 187.9C291.9 187.9 288.7 187.2 286.3 186.2C283.5 185.2 281.4 183.8 280 181.7C278.3 180 277.2 177.5 276.5 175.1C275.8 172.7 275.5 169.9 275.5 167.1L291.2 164C291.2 166.8 291.9 169.2 292.6 170.6C293.3 172 294.7 172.7 296.8 172.7C297.8 172.7 298.9 172.4 299.6 172C300.3 171.3 300.6 170.6 301 169.9C301.3 169.2 301.7 168.2 301.7 166.8V163.3C301.7 161.6 301.7 160.5 301.4 159.5C301.1 158.5 300.7 157.4 300.4 156.7C299.7 156 299 155.3 298 154.6C297 153.9 295.9 153.6 294.2 152.9C290.4 151.2 287.2 149.8 284.8 148C282.4 146.3 280.6 144.5 279.2 142.4C277.8 140.3 277.1 138.6 276.8 136.1C276.5 134 276.1 131.6 276.1 128.8C276.1 125.7 276.4 122.5 277.1 119.7C277.8 116.9 279.2 114.5 280.6 112.4C282.3 110.3 284.4 108.9 286.9 107.9C289.7 106.9 292.8 106.2 296.3 106.2C300.1 106.2 303.6 106.9 306.1 107.9C308.5 109.3 310.6 110.7 312.4 112.8C313.8 114.9 314.8 117 315.5 119.4C316.2 121.8 316.5 123.9 316.5 126.4L301.1 129.9V126.6C301.1 125.6 300.8 124.9 300.4 123.8C300.1 123.1 299.4 122.4 299 122.1C298.3 121.8 297.6 121.4 296.2 121.4C295.2 121.4 294.5 121.7 293.8 122.1C293.1 122.4 292.8 123.1 292.4 123.8C292.1 124.5 291.7 125.2 291.7 126.2V129C291.7 130 291.7 131.1 292 131.8C292 132.5 292.7 133.5 293 134.2C293.7 134.9 294.4 135.6 295.8 136.3L300.7 138.7C304.2 140.1 307.3 141.8 309.4 143.2C311.5 144.9 313.2 146.7 314.3 148.4C315.3 150.1 316 152.6 316.4 155C316.6 157.6 316.6 160.4 316.6 163.5ZM363.1 163.5C363.1 167.3 362.8 170.5 362.1 173.6C361.4 176.7 360.4 179.2 358.6 181.3C357.2 183.4 354.8 185.1 352.3 186.2C349.5 187.2 346.4 187.9 342.2 187.9C338.4 187.9 335.2 187.2 332.8 186.2C330 185.2 327.9 183.8 326.5 181.7C324.8 180 323.7 177.5 323 175.1C322.3 172.7 322 169.9 322 167.1L337.7 164C337.7 166.8 338.4 169.2 339.1 170.6C339.8 172 341.2 172.7 343.3 172.7C344.3 172.7 345.4 172.4 346.1 172C346.8 171.3 347.1 170.6 347.5 169.9C347.8 169.2 348.2 168.2 348.2 166.8V163.3C348.2 161.6 348.2 160.5 347.9 159.5C347.6 158.5 347.2 157.4 346.9 156.7C346.2 156 345.5 155.3 344.5 154.6C343.5 153.9 342.4 153.6 340.7 152.9C336.9 151.2 333.7 149.8 331.3 148C328.9 146.3 327.1 144.5 325.7 142.4C324.3 140.3 323.6 138.6 323.3 136.1C323 134 322.6 131.6 322.6 128.8C322.6 125.7 322.9 122.5 323.6 119.7C324.3 116.9 325.7 114.5 327.1 112.4C328.8 110.3 330.9 108.9 333.4 107.9C336.2 106.9 339.3 106.2 342.8 106.2C346.6 106.2 350.1 106.9 352.6 107.9C355 109.3 357.1 110.7 358.9 112.8C360.3 114.9 361.3 117 362 119.4C362.7 121.8 363 123.9 363 126.4L347.6 129.9V126.6C347.6 125.6 347.3 124.9 346.9 123.8C346.6 123.1 345.9 122.4 345.5 122.1C344.8 121.8 344.1 121.4 342.7 121.4C341.7 121.4 341 121.7 340.3 122.1C339.6 122.4 339.3 123.1 338.9 123.8C338.6 124.5 338.2 125.2 338.2 126.2V129C338.2 130 338.2 131.1 338.5 131.8C338.5 132.5 339.2 133.5 339.5 134.2C340.2 134.9 340.9 135.6 342.3 136.3L347.2 138.7C350.7 140.1 353.8 141.8 355.9 143.2C358 144.9 359.7 146.7 360.8 148.4C361.8 150.1 362.5 152.6 362.9 155C362.7 157.6 363.1 160.4 363.1 163.5ZM369.3 186.9V107H406V122H385.1V139.1H403.6V154.1H385.1V172.2H406V186.9H369.3ZM434.3 171.2L430.8 161.1L427.3 149.2H426.6V186.9H410.9V107H425.6L433.6 128.3L438.8 144H439.5L445.1 127.9L452.8 107H467.5V186.9H451.8V149.6H451.5L447.7 161.8L444.6 171.2H434.3ZM506.2 145C507.9 145.7 509.7 146.4 510.7 147.8C511.7 148.8 512.8 150.2 513.5 151.6C514.2 153 514.9 154.7 514.9 156.5C515.2 158.2 515.2 160 515.2 161.7C515.2 170.4 513.5 176.7 509.6 180.5C505.8 184.7 500.2 186.4 492.8 186.4H475V106.8H493.1C500.1 106.8 505.7 108.5 509.2 112.4C512.7 116.2 514.4 121.8 514.4 129.2C514.4 130.9 514.4 132.3 514.1 134.1C513.8 135.8 513.4 137.2 512.7 138.6C512 140 511 141 509.9 142.4C509 143.7 507.6 144.4 506.2 145ZM499.9 129.7C499.9 126.6 499.2 124.5 498.2 123.4C497.2 122.4 495.1 122 492.6 122H490.9V137.7H493C497.8 137.7 499.9 135.3 499.9 129.7ZM500.6 161.1C500.6 158 499.9 155.5 498.9 154.5C497.9 153.1 496.1 152.4 494 152.4H491.2V172.3H494C495.4 172.3 496.8 172 497.5 171.6C498.5 170.9 498.9 170.2 499.6 169.2C499.9 168.2 500.3 167.1 500.6 165.7V161.1ZM524 186.9V107H539.7V171.9H560.6V186.9H524V186.9ZM577 136.3L579.8 123L583.3 107.3H599.7L584.3 154.8V186.9H568.6V154.4L552.9 106.9H569.7L573.5 123L576.3 136.3H577V136.3Z" fill="white"/>
<path d="M191 99.7C191 95.9 194.1 92.7 198 92.4C197.7 88.6 197.3 84.4 196.6 80.5C192.8 81.5 188.9 79.1 187.9 75.6C186.9 71.8 189.3 67.9 192.8 66.9C191.4 63.1 190 59.6 188.3 56.1C184.8 58.2 180.6 56.8 178.5 53.7C176.4 50.2 177.8 46 180.9 43.9C178.8 40.8 176.4 37.6 173.6 34.5C170.8 37.3 166.3 37.3 163.5 34.5C160.7 31.7 160.7 27.2 163.5 24.4C160.7 22 157.6 19.5 154.1 17.1C152 20.6 147.8 21.6 144.3 19.5C140.8 17.4 139.8 13.2 141.9 9.70001C138.4 8.00001 134.9 6.60001 131.1 5.20001C130.1 9.00001 126.2 11.1 122.4 10.1C118.6 9.10001 116.5 5.20001 117.5 1.40001C113.7 0.700009 109.8 0 106 0C106 3.8 102.9 7.3 99 7.3C95.2 7.3 92 4.2 92 0C88.2 0.3 84.3 0.700009 80.5 1.40001C81.5 5.20001 79.5 9.10001 75.6 10.1C71.8 11.1 67.9 8.70001 66.9 5.20001C63.1 6.60001 59.6 8.00001 56.1 9.70001C58.2 13.2 56.8 17.4 53.7 19.5C50.2 21.6 46 20.2 43.9 17.1C40.8 19.2 37.6 21.6 34.5 24.4C37.3 27.2 37.3 31.7 34.5 34.5C31.7 37.3 27.2 37.3 24.4 34.5L17.1 43.9C20.6 46 21.6 50.2 19.5 53.7C17.4 57.2 13.2 58.2 9.7 56.5C8 60 6.6 63.8 5.2 67.3C9 68.3 11.1 72.2 10.1 76C9.1 79.8 5.2 81.9 1.4 80.9C0.7 84.7 0 88.6 0 92.8C3.8 92.8 7 95.9 7 100.1C7 103.9 3.9 107.1 0 107.1C0.3 110.9 0.7 115.1 1.4 119C5.2 118 9.1 120.4 10.1 123.9C11.1 127.7 8.7 131.6 5.2 132.6C6.6 136.4 8 139.9 9.7 143.8C13.2 141.7 17.4 143.1 19.5 146.6C21.6 150.1 20.2 154.3 17.1 156.4C19.2 159.5 21.6 162.7 24.4 165.8C27.2 163 31.7 163 34.5 165.8C37.3 168.6 37.3 173.1 34.5 175.9C37.3 178.3 40.4 180.8 43.9 183.2C46 179.7 50.2 178.7 53.7 180.4C57.2 182.5 58.2 186.7 56.1 190.2C59.6 191.9 63.1 193.3 66.9 194.7C67.9 190.9 71.8 188.8 75.6 189.8C79.4 190.8 81.5 194.7 80.5 198.5C84.3 199.2 88.2 199.9 92 199.9C92 196.1 95.1 192.9 99 192.9C102.8 192.9 106 196 106 199.9C109.8 199.6 113.7 199.2 117.5 198.5C116.5 194.7 118.9 190.8 122.4 189.8C126.2 188.8 130.1 191.2 131.1 194.7C134.9 193.3 138.4 191.9 141.9 190.2C139.8 186.7 141.2 182.5 144.3 180.4C147.8 178.3 152 179.7 154.1 182.8C157.2 180.7 160.4 178.3 163.5 175.5C160.7 172.7 160.7 168.2 163.5 165.4C166.3 162.6 170.8 162.6 173.6 165.4L180.9 156C177.4 153.9 176.4 149.7 178.5 146.2C180.6 142.7 184.8 141.7 188.3 143.4C190 139.9 191.4 136.1 192.8 132.2C189 131.2 186.9 127.3 187.9 123.5C188.9 119.7 192.8 117.6 196.6 118.3C197.3 114.5 198 110.6 198 106.4C194.1 107 191 103.5 191 99.7Z" fill="#FF2734"/>
<path d="M71.6 41C65 41 59.7 43.1 55.9 46.9C52.4 50.7 50.7 56 50.7 62.6V137.6C50.7 144.6 52.4 149.5 55.6 153C59.1 156.5 64.3 158.2 71.3 158.2C77.9 158.2 82.8 156.5 86.3 153C89.8 149.5 91.5 144.3 91.5 137.6V102.7H70.6V116.7H75.8V138.7C75.8 140.1 75.5 141.1 74.4 141.8C73.4 142.5 72.3 143.2 70.6 143.2C68.5 143.2 67.5 142.9 66.8 141.8C66.5 140.8 66.1 139.7 66.1 138.7V62.3C66.1 61.6 66.1 61.3 66.4 60.2C66.4 59.5 66.7 58.8 67.1 58.1C67.4 57.4 68.1 57.1 68.5 56.4C69.2 56.1 69.9 55.7 70.9 55.7H71.2C72.2 55.7 72.9 56 73.6 56.4C74.3 56.7 74.6 57.4 75 58.1C75.3 58.8 75.7 59.5 75.7 60.2C75.7 60.9 76 61.6 76 62.3V79.8H91.7V62.3C91.7 55.7 90 50.8 86.5 46.6C83.8 43.1 78.6 41 71.6 41Z" fill="white"/>
<path d="M131 41.6992H111.8L96.4 157.599H113.1L116.6 129.299H126.1L129.6 157.599H146L131 41.6992Z" fill="white"/>
<path d="M121.5 115.699C117.7 115.699 114.5 112.599 114.5 108.699C114.5 104.899 117.6 101.699 121.5 101.699C125.3 101.699 128.5 104.799 128.5 108.699C128.5 112.599 125.4 115.699 121.5 115.699Z" fill="#FF2734"/>
</svg>
